<svg xmlns="http://www.w3.org/2000/svg" viewBox="0 0 720 200">
  <defs>
    <linearGradient id="g" x1="0" y1="0" x2="0" y2="1">
      <stop offset="0%" stop-color="#2f65c8" stop-opacity="0.18"/>
      <stop offset="100%" stop-color="#2f65c8" stop-opacity="0.02"/>
    </linearGradient>
  </defs>
  <rect x="10" y="8" width="48" height="18" rx="9" fill="rgba(37,99,235,0.10)"/>
  <text x="34" y="21" text-anchor="middle" font-family="system-ui,sans-serif" font-size="10.5" font-weight="700" fill="#1d4ed8">$ GMV</text>
  <line x1='8' y1='22.0' x2='646' y2='22.0' stroke='rgba(148,163,184,0.18)' stroke-width='1'/><text x='712' y='26.0' text-anchor='end' font-family='system-ui,sans-serif' font-size='11' fill='#64748b'>$8.6K</text><line x1='8' y1='102.0' x2='646' y2='102.0' stroke='rgba(148,163,184,0.18)' stroke-width='1'/><text x='712' y='106.0' text-anchor='end' font-family='system-ui,sans-serif' font-size='11' fill='#64748b'>$4.3K</text><line x1='8' y1='182.0' x2='646' y2='182.0' stroke='rgba(148,163,184,0.18)' stroke-width='1'/><text x='712' y='186.0' text-anchor='end' font-family='system-ui,sans-serif' font-size='11' fill='#64748b'>$0</text>
  <polygon points="8,182 8.0,178.8 15.2,177.7 22.3,177.0 29.5,177.0 36.7,172.7 43.8,178.4 51.0,177.0 58.2,174.2 65.3,178.1 72.5,174.9 79.7,182.0 86.9,178.1 94.0,169.7 101.2,157.8 108.4,175.6 115.5,171.4 122.7,171.4 129.9,158.7 137.0,176.4 144.2,165.8 151.4,170.7 158.5,175.6 165.7,177.8 172.9,175.6 180.0,165.4 187.2,159.7 194.4,164.0 201.6,133.8 208.7,148.7 215.9,110.5 223.1,150.1 230.2,134.5 237.4,132.4 244.6,146.6 251.7,104.8 258.9,123.9 266.1,131.7 273.2,110.5 280.4,156.5 287.6,93.5 294.7,96.7 301.9,118.7 309.1,96.7 316.2,44.1 323.4,163.3 330.6,111.1 337.8,112.5 344.9,39.1 352.1,100.2 359.3,116.7 366.4,78.2 373.6,88.6 380.8,52.7 387.9,102.3 395.1,51.4 402.3,86.8 409.4,108.8 416.6,94.7 423.8,107.5 430.9,110.6 438.1,67.9 445.3,88.0 452.4,117.3 459.6,111.2 466.8,100.8 474.0,121.0 481.1,46.5 488.3,66.0 495.5,86.8 502.6,101.4 509.8,80.1 517.0,92.9 524.1,110.0 531.3,123.2 538.5,64.7 545.6,44.9 552.8,52.6 560.0,89.2 567.1,62.9 574.3,75.8 581.5,80.9 588.7,80.1 595.8,182.0 603.0,24.7 610.2,87.7 617.3,82.9 624.5,74.8 631.7,75.8 638.8,44.7 646.0,22.0 646,182" fill="url(#g)"/>
  <polyline points="8.0,178.8 15.2,177.7 22.3,177.0 29.5,177.0 36.7,172.7 43.8,178.4 51.0,177.0 58.2,174.2 65.3,178.1 72.5,174.9 79.7,182.0 86.9,178.1 94.0,169.7 101.2,157.8 108.4,175.6 115.5,171.4 122.7,171.4 129.9,158.7 137.0,176.4 144.2,165.8 151.4,170.7 158.5,175.6 165.7,177.8 172.9,175.6 180.0,165.4 187.2,159.7 194.4,164.0 201.6,133.8 208.7,148.7 215.9,110.5 223.1,150.1 230.2,134.5 237.4,132.4 244.6,146.6 251.7,104.8 258.9,123.9 266.1,131.7 273.2,110.5 280.4,156.5 287.6,93.5 294.7,96.7 301.9,118.7 309.1,96.7 316.2,44.1 323.4,163.3 330.6,111.1 337.8,112.5 344.9,39.1 352.1,100.2 359.3,116.7 366.4,78.2 373.6,88.6 380.8,52.7 387.9,102.3 395.1,51.4 402.3,86.8 409.4,108.8 416.6,94.7 423.8,107.5 430.9,110.6 438.1,67.9 445.3,88.0 452.4,117.3 459.6,111.2 466.8,100.8 474.0,121.0 481.1,46.5 488.3,66.0 495.5,86.8 502.6,101.4 509.8,80.1 517.0,92.9 524.1,110.0 531.3,123.2 538.5,64.7 545.6,44.9 552.8,52.6 560.0,89.2 567.1,62.9 574.3,75.8 581.5,80.9 588.7,80.1 595.8,182.0 603.0,24.7 610.2,87.7 617.3,82.9 624.5,74.8 631.7,75.8 638.8,44.7 646.0,22.0" fill="none" stroke="#2f65c8" stroke-width="4" stroke-linecap="round" stroke-linejoin="round"/>
  <circle cx="646.0" cy="22.0" r="4.5" fill="#2f65c8" stroke="#ffffff" stroke-width="2"/>
</svg>