<svg xmlns="http://www.w3.org/2000/svg" viewBox="0 0 720 200">
  <defs>
    <linearGradient id="g" x1="0" y1="0" x2="0" y2="1">
      <stop offset="0%" stop-color="#2f65c8" stop-opacity="0.18"/>
      <stop offset="100%" stop-color="#2f65c8" stop-opacity="0.02"/>
    </linearGradient>
  </defs>
  <polygon points="0,200 0.0,183.3 8.1,184.1 16.2,183.2 24.3,184.1 32.4,182.9 40.4,183.7 48.5,184.1 56.6,183.7 64.7,184.0 72.8,183.6 80.9,184.2 89.0,180.5 97.1,182.9 105.2,182.9 113.3,184.3 121.3,183.6 129.4,182.2 137.5,183.1 145.6,184.6 153.7,183.5 161.8,182.8 169.9,182.8 178.0,183.2 186.1,181.7 194.2,183.0 202.2,182.9 210.3,183.1 218.4,183.6 226.5,183.7 234.6,184.5 242.7,184.0 250.8,184.0 258.9,183.7 267.0,184.0 275.1,184.3 283.1,184.8 291.2,184.0 299.3,184.6 307.4,184.0 315.5,184.0 323.6,184.6 331.7,184.3 339.8,182.8 347.9,184.9 356.0,183.1 364.0,184.5 372.1,184.2 380.2,184.4 388.3,184.3 396.4,184.8 404.5,182.9 412.6,184.1 420.7,184.3 428.8,184.4 436.9,183.9 444.9,183.4 453.0,184.9 461.1,184.5 469.2,183.5 477.3,182.9 485.4,183.5 493.5,183.4 501.6,182.5 509.7,183.8 517.8,184.1 525.8,182.5 533.9,183.6 542.0,182.6 550.1,182.5 558.2,183.9 566.3,182.0 574.4,182.8 582.5,182.6 590.6,183.4 598.7,183.5 606.7,183.8 614.8,183.4 622.9,184.2 631.0,184.1 639.1,183.7 647.2,183.7 655.3,184.2 663.4,184.1 671.5,183.9 679.6,133.8 687.6,132.1 695.7,15.0 703.8,62.6 711.9,68.9 720.0,74.3 720,200" fill="url(#g)"/>
  <polyline points="0.0,183.3 8.1,184.1 16.2,183.2 24.3,184.1 32.4,182.9 40.4,183.7 48.5,184.1 56.6,183.7 64.7,184.0 72.8,183.6 80.9,184.2 89.0,180.5 97.1,182.9 105.2,182.9 113.3,184.3 121.3,183.6 129.4,182.2 137.5,183.1 145.6,184.6 153.7,183.5 161.8,182.8 169.9,182.8 178.0,183.2 186.1,181.7 194.2,183.0 202.2,182.9 210.3,183.1 218.4,183.6 226.5,183.7 234.6,184.5 242.7,184.0 250.8,184.0 258.9,183.7 267.0,184.0 275.1,184.3 283.1,184.8 291.2,184.0 299.3,184.6 307.4,184.0 315.5,184.0 323.6,184.6 331.7,184.3 339.8,182.8 347.9,184.9 356.0,183.1 364.0,184.5 372.1,184.2 380.2,184.4 388.3,184.3 396.4,184.8 404.5,182.9 412.6,184.1 420.7,184.3 428.8,184.4 436.9,183.9 444.9,183.4 453.0,184.9 461.1,184.5 469.2,183.5 477.3,182.9 485.4,183.5 493.5,183.4 501.6,182.5 509.7,183.8 517.8,184.1 525.8,182.5 533.9,183.6 542.0,182.6 550.1,182.5 558.2,183.9 566.3,182.0 574.4,182.8 582.5,182.6 590.6,183.4 598.7,183.5 606.7,183.8 614.8,183.4 622.9,184.2 631.0,184.1 639.1,183.7 647.2,183.7 655.3,184.2 663.4,184.1 671.5,183.9 679.6,133.8 687.6,132.1 695.7,15.0 703.8,62.6 711.9,68.9 720.0,74.3" fill="none" stroke="#2f65c8" stroke-width="4" stroke-linecap="round" stroke-linejoin="round"/>
</svg>