<svg xmlns="http://www.w3.org/2000/svg" viewBox="0 0 720 200">
  <defs>
    <linearGradient id="g" x1="0" y1="0" x2="0" y2="1">
      <stop offset="0%" stop-color="#2f65c8" stop-opacity="0.18"/>
      <stop offset="100%" stop-color="#2f65c8" stop-opacity="0.02"/>
    </linearGradient>
  </defs>
  <rect x="10" y="8" width="48" height="18" rx="9" fill="rgba(37,99,235,0.10)"/>
  <text x="34" y="21" text-anchor="middle" font-family="system-ui,sans-serif" font-size="10.5" font-weight="700" fill="#1d4ed8">$ GMV</text>
  <line x1='8' y1='22.0' x2='646' y2='22.0' stroke='rgba(148,163,184,0.18)' stroke-width='1'/><text x='712' y='26.0' text-anchor='end' font-family='system-ui,sans-serif' font-size='11' fill='#64748b'>$8.2K</text><line x1='8' y1='102.0' x2='646' y2='102.0' stroke='rgba(148,163,184,0.18)' stroke-width='1'/><text x='712' y='106.0' text-anchor='end' font-family='system-ui,sans-serif' font-size='11' fill='#64748b'>$4.1K</text><line x1='8' y1='182.0' x2='646' y2='182.0' stroke='rgba(148,163,184,0.18)' stroke-width='1'/><text x='712' y='186.0' text-anchor='end' font-family='system-ui,sans-serif' font-size='11' fill='#64748b'>$0</text>
  <polygon points="8,182 8.0,168.9 15.2,169.7 22.3,172.0 29.5,178.8 36.7,176.7 43.8,177.9 51.0,172.9 58.2,161.5 65.3,167.3 72.5,163.8 79.7,165.0 86.9,172.0 94.0,174.4 101.2,172.3 108.4,172.6 115.5,170.3 122.7,175.3 129.9,172.3 137.0,176.1 144.2,171.5 151.4,172.9 158.5,173.5 165.7,172.3 172.9,172.6 180.0,172.3 187.2,174.4 194.4,175.3 201.6,174.4 208.7,171.5 215.9,171.5 223.1,176.4 230.2,167.1 237.4,174.7 244.6,169.1 251.7,167.6 258.9,168.2 266.1,175.6 273.2,172.6 280.4,173.8 287.6,175.6 294.7,173.2 301.9,176.7 309.1,175.0 316.2,170.0 323.4,172.0 330.6,174.4 337.8,177.6 344.9,166.2 352.1,179.4 359.3,165.3 366.4,172.6 373.6,169.4 380.8,170.9 387.9,161.1 395.1,158.7 402.3,171.5 409.4,167.8 416.6,166.8 423.8,159.0 430.9,150.5 438.1,123.0 445.3,140.6 452.4,177.4 459.6,156.6 466.8,153.3 474.0,150.0 481.1,131.7 488.3,132.5 495.5,142.8 502.6,146.3 509.8,148.6 517.0,142.5 524.1,130.4 531.3,63.4 538.5,68.2 545.6,79.5 552.8,82.9 560.0,89.2 567.1,76.0 574.3,75.4 581.5,24.4 588.7,22.0 595.8,61.9 603.0,86.8 610.2,82.0 617.3,109.2 624.5,103.2 631.7,101.7 638.8,74.1 646.0,107.6 646,182" fill="url(#g)"/>
  <polyline points="8.0,168.9 15.2,169.7 22.3,172.0 29.5,178.8 36.7,176.7 43.8,177.9 51.0,172.9 58.2,161.5 65.3,167.3 72.5,163.8 79.7,165.0 86.9,172.0 94.0,174.4 101.2,172.3 108.4,172.6 115.5,170.3 122.7,175.3 129.9,172.3 137.0,176.1 144.2,171.5 151.4,172.9 158.5,173.5 165.7,172.3 172.9,172.6 180.0,172.3 187.2,174.4 194.4,175.3 201.6,174.4 208.7,171.5 215.9,171.5 223.1,176.4 230.2,167.1 237.4,174.7 244.6,169.1 251.7,167.6 258.9,168.2 266.1,175.6 273.2,172.6 280.4,173.8 287.6,175.6 294.7,173.2 301.9,176.7 309.1,175.0 316.2,170.0 323.4,172.0 330.6,174.4 337.8,177.6 344.9,166.2 352.1,179.4 359.3,165.3 366.4,172.6 373.6,169.4 380.8,170.9 387.9,161.1 395.1,158.7 402.3,171.5 409.4,167.8 416.6,166.8 423.8,159.0 430.9,150.5 438.1,123.0 445.3,140.6 452.4,177.4 459.6,156.6 466.8,153.3 474.0,150.0 481.1,131.7 488.3,132.5 495.5,142.8 502.6,146.3 509.8,148.6 517.0,142.5 524.1,130.4 531.3,63.4 538.5,68.2 545.6,79.5 552.8,82.9 560.0,89.2 567.1,76.0 574.3,75.4 581.5,24.4 588.7,22.0 595.8,61.9 603.0,86.8 610.2,82.0 617.3,109.2 624.5,103.2 631.7,101.7 638.8,74.1 646.0,107.6" fill="none" stroke="#2f65c8" stroke-width="4" stroke-linecap="round" stroke-linejoin="round"/>
  <circle cx="646.0" cy="107.6" r="4.5" fill="#2f65c8" stroke="#ffffff" stroke-width="2"/>
</svg>