<svg xmlns="http://www.w3.org/2000/svg" viewBox="0 0 720 200">
  <defs>
    <linearGradient id="g" x1="0" y1="0" x2="0" y2="1">
      <stop offset="0%" stop-color="#2f65c8" stop-opacity="0.18"/>
      <stop offset="100%" stop-color="#2f65c8" stop-opacity="0.02"/>
    </linearGradient>
  </defs>
  <rect x="10" y="8" width="48" height="18" rx="9" fill="rgba(37,99,235,0.10)"/>
  <text x="34" y="21" text-anchor="middle" font-family="system-ui,sans-serif" font-size="10.5" font-weight="700" fill="#1d4ed8">$ GMV</text>
  <line x1='8' y1='22.0' x2='646' y2='22.0' stroke='rgba(148,163,184,0.18)' stroke-width='1'/><text x='712' y='26.0' text-anchor='end' font-family='system-ui,sans-serif' font-size='11' fill='#64748b'>$1.6K</text><line x1='8' y1='102.0' x2='646' y2='102.0' stroke='rgba(148,163,184,0.18)' stroke-width='1'/><text x='712' y='106.0' text-anchor='end' font-family='system-ui,sans-serif' font-size='11' fill='#64748b'>$807.27</text><line x1='8' y1='182.0' x2='646' y2='182.0' stroke='rgba(148,163,184,0.18)' stroke-width='1'/><text x='712' y='186.0' text-anchor='end' font-family='system-ui,sans-serif' font-size='11' fill='#64748b'>$0</text>
  <polygon points="8,182 8.0,173.1 15.2,99.1 22.3,164.2 29.5,158.3 36.7,131.6 43.8,182.0 51.0,134.6 58.2,155.3 65.3,152.4 72.5,179.0 79.7,128.7 86.9,164.2 94.0,146.5 101.2,152.4 108.4,155.3 115.5,143.5 122.7,161.3 129.9,158.3 137.0,173.1 144.2,150.4 151.4,97.6 158.5,131.9 165.7,129.3 172.9,84.4 180.0,142.4 187.2,174.1 194.4,129.3 201.6,153.0 208.7,147.7 215.9,105.5 223.1,129.3 230.2,147.7 237.4,121.3 244.6,160.9 251.7,97.6 258.9,113.4 266.1,139.8 273.2,150.4 280.4,102.9 287.6,164.6 294.7,112.5 301.9,161.7 309.1,98.0 316.2,150.1 323.4,161.7 330.6,158.8 337.8,129.8 344.9,152.4 352.1,134.6 359.3,170.2 366.4,158.3 373.6,102.0 380.8,182.0 387.9,127.5 395.1,141.1 402.3,127.5 409.4,134.3 416.6,154.7 423.8,141.1 430.9,161.6 438.1,178.6 445.3,158.1 452.4,151.3 459.6,151.3 466.8,168.4 474.0,137.7 481.1,144.5 488.3,117.2 495.5,98.2 502.6,132.7 509.8,109.8 517.0,52.1 524.1,120.7 531.3,95.1 538.5,99.8 545.6,132.7 552.8,144.3 560.0,182.0 567.1,22.0 574.3,95.3 581.5,116.3 588.7,147.7 595.8,145.9 603.0,142.1 610.2,163.0 617.3,144.3 624.5,111.5 631.7,72.7 638.8,101.1 646.0,132.7 646,182" fill="url(#g)"/>
  <polyline points="8.0,173.1 15.2,99.1 22.3,164.2 29.5,158.3 36.7,131.6 43.8,182.0 51.0,134.6 58.2,155.3 65.3,152.4 72.5,179.0 79.7,128.7 86.9,164.2 94.0,146.5 101.2,152.4 108.4,155.3 115.5,143.5 122.7,161.3 129.9,158.3 137.0,173.1 144.2,150.4 151.4,97.6 158.5,131.9 165.7,129.3 172.9,84.4 180.0,142.4 187.2,174.1 194.4,129.3 201.6,153.0 208.7,147.7 215.9,105.5 223.1,129.3 230.2,147.7 237.4,121.3 244.6,160.9 251.7,97.6 258.9,113.4 266.1,139.8 273.2,150.4 280.4,102.9 287.6,164.6 294.7,112.5 301.9,161.7 309.1,98.0 316.2,150.1 323.4,161.7 330.6,158.8 337.8,129.8 344.9,152.4 352.1,134.6 359.3,170.2 366.4,158.3 373.6,102.0 380.8,182.0 387.9,127.5 395.1,141.1 402.3,127.5 409.4,134.3 416.6,154.7 423.8,141.1 430.9,161.6 438.1,178.6 445.3,158.1 452.4,151.3 459.6,151.3 466.8,168.4 474.0,137.7 481.1,144.5 488.3,117.2 495.5,98.2 502.6,132.7 509.8,109.8 517.0,52.1 524.1,120.7 531.3,95.1 538.5,99.8 545.6,132.7 552.8,144.3 560.0,182.0 567.1,22.0 574.3,95.3 581.5,116.3 588.7,147.7 595.8,145.9 603.0,142.1 610.2,163.0 617.3,144.3 624.5,111.5 631.7,72.7 638.8,101.1 646.0,132.7" fill="none" stroke="#2f65c8" stroke-width="4" stroke-linecap="round" stroke-linejoin="round"/>
  <circle cx="646.0" cy="132.7" r="4.5" fill="#2f65c8" stroke="#ffffff" stroke-width="2"/>
</svg>